<svg xmlns="http://www.w3.org/2000/svg" width="100" height="100" viewBox="-50 -50 1349 1349" fill-rule="evenodd" clip-rule="evenodd"><defs>
    <linearGradient id="a" gradientUnits="userSpaceOnUse" x1="223" y1="904" x2="868" y2="200">
      <stop offset="0" stop-color="#1966ff"></stop> <stop offset=".302" stop-color="#0d80ff"></stop> <stop offset="1" stop-color="#009aff"></stop>
    </linearGradient>
  </defs><circle cx="625" cy="625" r="670" fill="#808080" fill-opacity="0.15"></circle><ellipse transform="matrix(5.91001 3.22333 -5.64048 10.3419 939.274 500.38)" rx="25" ry="14" fill="#009aff"></ellipse><path d="M382 1082h562c47-4 90-18 126-65 71-91 43-219-65-271-9-5-19-7-27-11-17 3-407 243-441 264-26 15-49 29-73 44-44 27-35 21-75 36l-7 3z" fill="#d6e4ff"></path><path d="M140 902c0 63 31 114 73 145l2 2c17 13 37 22 60 28 4 1 8 1 12 2 68 12 106-11 152-39 85-52 171-103 256-155 41-25 84-53 127-77 21-12 43-26 64-39 14-8 53-34 65-37l-15-5c-9-1-180-1-346-1 25-58 57-133 70-165l81-186c5-14 10-25 16-39l33-75c21-58 13-115-23-166C699-3 535-8 467 118l-27 60c-32 77-72 161-103 237l-77 178c-4 10-8 19-13 30l-64 148c-17 38-43 88-43 131z" fill="url(#a)"></path></svg>